#!OML:ASF E:\basketball\basketball\Project 1\Capture day 1\Session 1\Subject.ASF
:FULLY-SPECIFIED
:DEGREES
173
root -12.6193 13.9438 -0.612158 20.3152 21.7518 2.07963
lowerback 24.9793 3.67303 1.27821
upperback 11.2534 5.24371 2.5405
thorax -1.55005 2.63503 0.676018
lowerneck -34.4638 21.4541 11.4099
upperneck -0.800277 29.3052 -31.6643
head 12.2086 11.3867 -5.91902
rclavicle 3.65764e-014 2.46493e-014
rhumerus 30.0166 -13.9656 -67.7831
rradius 56.408
rwrist -4.60405
rhand 15.1932 41.6626
rfingers 7.12502
rthumb 40.0335 16.4467
lclavicle 3.65764e-014 2.46493e-014
lhumerus -68.2677 -22.3711 102.29
lradius 44.8459
lwrist 22.0703
lhand -28.6142 39.1382
lfingers 7.12502
lthumb -1.9791 69.1088
rfemur -18.9581 -5.37246 18.8403
rtibia 62.7811
rfoot -30.1079 -6.5222
rtoes -44.6747
lfemur -54.2652 19.8622 -23.6651
ltibia 111.726
lfoot -11.3097 4.7391
ltoes -10.7033
174
root -12.392 13.9747 -0.228682 20.2255 20.8856 1.98762
lowerback 25.0773 4.23819 1.05874
upperback 11.5564 5.87139 1.90236
thorax -1.21474 2.95707 -0.0316998
lowerneck -35.1381 20.8032 11.1001
upperneck -0.39579 28.3161 -30.6872
head 11.9754 10.9373 -5.89526
rclavicle -1.59028e-015 -2.14687e-014
rhumerus 33.6185 -18.4095 -70.7736
rradius 48.5215
rwrist -4.87501
rhand 16.9727 45.8444
rfingers 7.12502
rthumb 41.7052 21.1563
lclavicle -1.59028e-015 -2.14687e-014
lhumerus -70.7712 -23.1344 103.408
lradius 44.7966
lwrist 23.5322
lhand -28.9075 38.6329
lfingers 7.12502
lthumb -2.26236 68.6007
rfemur -15.428 -5.68485 17.7094
rtibia 59.1375
rfoot -30.0536 -2.7786
rtoes -42.6602
lfemur -58.0735 18.6189 -25.328
ltibia 110.002
lfoot -12.2097 6.7038
ltoes -13.8505
175
root -12.1548 14.0206 0.175645 20.2222 20.1636 2.08677
lowerback 24.8958 5.1434 -0.776668
upperback 11.9878 6.65109 2.65234
thorax -0.936864 3.25129 1.62854
lowerneck -35.7033 20.1461 9.88
upperneck -0.103851 27.9951 -30.7182
head 11.9577 10.7166 -5.84204
rclavicle 2.06736e-014 -5.24792e-014
rhumerus 39.5921 -24.162 -75.0149
rradius 39.6557
rwrist -4.39302
rhand 21.4562 50.3415
rfingers 7.12502
rthumb 45.8892 27.2009
lclavicle 2.06736e-014 -5.24792e-014
lhumerus -71.812 -21.8807 105.587
lradius 43.7548
lwrist 23.2327
lhand -27.7297 38.715
lfingers 7.12502
lthumb -1.12486 68.6918
rfemur -11.7986 -6.17974 16.411
rtibia 55.2748
rfoot -29.4216 -0.678465
rtoes -43.3398
lfemur -61.2752 16.7361 -26.9429
ltibia 107.484
lfoot -12.8281 7.28092
ltoes -13.4916
176
root -11.9224 14.0102 0.564117 20.2213 19.6673 2.16063
lowerback 24.9581 5.51417 -0.877001
upperback 12.2474 7.0666 1.99693
thorax -0.616553 3.47243 0.892732
lowerneck -36.6873 19.0742 8.21181
upperneck 0.37371 26.7536 -28.5902
head 11.3177 10.2351 -5.31541
rclavicle -5.40694e-014 -1.27222e-014
rhumerus 46.4016 -30.4536 -83.384
rradius 31.1057
rwrist 1.96513
rhand 22.2736 55.4712
rfingers 7.12502
rthumb 46.6469 32.651
lclavicle -5.40694e-014 -1.27222e-014
lhumerus -73.2168 -22.1356 106.23
lradius 43.4936
lwrist 23.0563
lhand -26.991 37.4275
lfingers 7.12502
lthumb -0.411412 67.4069
rfemur -8.35775 -6.53034 15.1979
rtibia 51.5273
rfoot -27.3807 7.66871
rtoes -33.0699
lfemur -64.7735 15.6966 -28.4546
ltibia 104.853
lfoot -13.1193 7.66755
ltoes -16.3135
177
root -11.6807 14.0624 0.991656 20.3054 19.3893 2.0182
lowerback 24.8436 5.90178 -0.976902
upperback 12.4986 7.52103 1.61949
thorax -0.250579 3.7061 0.46166
lowerneck -39.3562 18.1349 7.68659
upperneck 2.4078 25.7298 -27.1318
head 11.8918 9.45744 -5.0568
rclavicle -8.74653e-014 8.74653e-015
rhumerus 55.4384 -36.5372 -94.9047
rradius 22.9077
rwrist 13.8714
rhand 19.8447 60.749
rfingers 7.12502
rthumb 44.3904 37.0133
lclavicle -8.74653e-014 8.74653e-015
lhumerus -74.0235 -22.588 107.579
lradius 42.8076
lwrist 23.3698
lhand -25.9295 37.0029
lfingers 7.12502
lthumb 0.6138 66.9818
rfemur -5.04281 -6.1727 14.2544
rtibia 47.5856
rfoot -22.407 14.4968
rtoes -17.2792
lfemur -67.4256 14.3714 -29.443
ltibia 101.217
lfoot -13.3206 7.48852
ltoes -18.7788
178
root -11.4423 14.096 1.42067 20.4957 19.1914 1.82707
lowerback 24.2349 6.71369 -2.38416
upperback 12.9531 8.30867 2.52356
thorax 0.210511 3.99732 2.08328
lowerneck -40.1617 17.2316 6.10199
upperneck 2.47087 25.2789 -27.1283
head 11.7724 9.17883 -4.96716
rclavicle 3.65764e-014 6.36111e-015
rhumerus 70.9854 -42.2118 -114.179
rradius 15.2093
rwrist 35.915
rhand 13.7256 65.8931
rfingers 7.12502
rthumb 38.6507 40.2739
lclavicle 3.65764e-014 6.36111e-015
lhumerus -73.974 -21.8719 110.071
lradius 42.349
lwrist 23.4017
lhand -24.4214 37.6598
lfingers 7.12502
lthumb 2.07039 67.6295
rfemur -1.80999 -6.18698 13.6303
rtibia 43.5103
rfoot -18.7215 15.5749
rtoes -19.9813
lfemur -70.0113 13.14 -30.2089
ltibia 97.224
lfoot -13.4766 6.44015
ltoes -18.0385
179
root -11.204 14.1305 1.86355 20.7476 19.0623 1.66969
lowerback 23.9278 7.51389 -3.79326
upperback 13.0528 9.07954 3.29074
thorax 0.108745 4.28504 3.50324
lowerneck -39.4397 16.3897 4.67974
upperneck 1.88538 24.7622 -27.3494
head 11.2609 9.05567 -5.00043
rclavicle 3.33958e-014 -3.81667e-014
rhumerus 119.277 -32.6957 -184.2
rradius 9.52026
rwrist 98.1391
rhand 5.70481 72.2483
rfingers 7.12502
rthumb 31.042 44.8548
lclavicle 3.33958e-014 -3.81667e-014
lhumerus -74.148 -21.5636 113.059
lradius 41.4724
lwrist 24.3743
lhand -22.6132 36.563
lfingers 7.12502
lthumb 3.81664 66.5086
rfemur 1.58143 -5.83476 13.0976
rtibia 39.1094
rfoot -12.9041 17.3058
rtoes -18.0925
lfemur -72.2772 12.216 -30.9799
ltibia 92.7099
lfoot -13.1855 4.82493
ltoes -12.6864
180
root -10.9746 14.1541 2.3124 20.9385 19.052 1.3296
lowerback 23.7434 8.22333 -5.08907
upperback 13.0743 9.75988 3.99819
thorax -0.145933 4.54247 4.7963
lowerneck -39.5158 15.6092 3.57428
upperneck 2.12663 24.2921 -27.2683
head 11.1551 8.81198 -4.95749
rclavicle 1.90833e-014 -4.6118e-014
rhumerus 130.009 3.78866 -227.6
rradius 13.7185
rwrist 162.268
rhand -3.49935 75.4454
rfingers 7.12502
rthumb 22.2347 46.7044
lclavicle 1.90833e-014 -4.6118e-014
lhumerus -73.929 -20.9854 115.527
lradius 40.6523
lwrist 25.1977
lhand -21.5495 36.5658
lfingers 7.12502
lthumb 4.84373 66.4904
rfemur 5.07675 -5.07689 12.9745
rtibia 34.4039
rfoot -5.87 18.0364
rtoes -15.3908
lfemur -74.2072 11.7283 -31.7909
ltibia 87.9164
lfoot -12.5372 3.38669
ltoes -12.817
181
root -10.7489 14.174 2.76796 20.9109 19.2324 0.609217
lowerback 24.4651 7.52358 -0.939946
upperback 12.794 9.53673 0.27833
thorax 0.490651 4.75753 -1.38739
lowerneck -41.358 14.3629 4.5752
upperneck 3.48772 21.4038 -23.3867
head 10.8184 7.65009 -4.59523
rclavicle 3.65764e-014 -5.56597e-014
rhumerus 130.106 8.57741 -237.074
rradius 19.8465
rwrist 176.422
rhand -12.8874 78.7183
rfingers 7.12502
rthumb 13.2018 49.1563
lclavicle 3.65764e-014 -5.56597e-014
lhumerus -75.108 -25.032 112.866
lradius 41.0913
lwrist 27.2361
lhand -20.4143 36.2976
lfingers 7.12502
lthumb 5.93983 66.1943
rfemur 8.74641 -3.73636 13.5951
rtibia 29.4981
rfoot -0.288382 17.1035
rtoes -17.5873
lfemur -75.6925 11.5437 -32.3567
ltibia 82.9831
lfoot -11.6229 1.9084
ltoes -19.6019
182
root -10.5206 14.1843 3.23087 20.6263 19.6738 -0.476222
lowerback 24.7177 7.81294 -0.362807
upperback 12.7322 10.0092 0.266507
thorax 0.410028 5.01682 -1.85351
lowerneck -41.8055 13.3497 4.01179
upperneck 3.60427 20.1367 -22.4939
head 10.5381 7.12878 -4.544
rclavicle 4.13472e-014 -1.90833e-014
rhumerus 130.179 9.22807 -238.346
rradius 24.9572
rwrist 181.191
rhand -16.8567 81.9453
rfingers 7.12502
rthumb 9.37364 52.1737
lclavicle 4.13472e-014 -1.90833e-014
lhumerus -74.9218 -25.3852 114.019
lradius 40.7756
lwrist 28.1856
lhand -18.8539 35.5057
lfingers 7.12502
lthumb 7.44622 65.3546
rfemur 12.8062 -1.82382 15.0234
rtibia 24.2698
rfoot 3.76986 15.1335
rtoes -19.2227
lfemur -76.8454 11.6069 -32.6259
ltibia 78.076
lfoot -10.4068 -0.173165
ltoes -26.2122
183
root -10.3024 14.1605 3.68956 20.2365 20.3683 -1.63467
lowerback 24.9447 8.0597 0.264949
upperback 12.7304 10.4515 0.462587
thorax 0.38507 5.2565 -2.11212
lowerneck -40.6537 12.5207 3.18978
upperneck 2.25527 19.1038 -22.1673
head 9.63442 6.91182 -4.57441
rclavicle 8.5875e-014 -4.45278e-014
rhumerus 132.043 10.3198 -239.668
rradius 25.5026
rwrist 185.285
rhand -19.7316 83.4435
rfingers 7.12502
rthumb 6.59894 53.5663
lclavicle 8.5875e-014 -4.45278e-014
lhumerus -74.4276 -25.6014 115.031
lradius 40.42
lwrist 28.8163
lhand -17.5939 34.688
lfingers 7.12502
lthumb 8.66223 64.4903
rfemur 17.362 0.310797 17.0062
rtibia 18.4572
rfoot 6.784 12.311
rtoes -20.8926
lfemur -77.9681 11.9077 -33.1219
ltibia 73.4737
lfoot -8.59793 -2.77889
ltoes -26.8135
184
root -10.0888 14.1601 4.15652 19.6711 21.406 -3.04114
lowerback 25.1384 8.28588 0.928325
upperback 12.8057 10.8933 1.01284
thorax 0.400395 5.48471 -2.00672
lowerneck -39.5405 11.6247 2.30385
upperneck 0.944314 18.0446 -21.977
head 8.79138 6.65351 -4.63808
rclavicle -1.74931e-014 -1.74931e-014
rhumerus 135.022 13.8696 -243.226
rradius 22.6551
rwrist 197.248
rhand -26.1991 83.2854
rfingers 7.12502
rthumb 0.353439 53.306
lclavicle -1.74931e-014 -1.74931e-014
lhumerus -73.1643 -25.3495 115.598
lradius 39.6847
lwrist 28.7782
lhand -17.0381 33.874
lfingers 7.12502
lthumb 9.19854 63.6533
rfemur 22.042 2.24816 19.7403
rtibia 12.5849
rfoot 8.55641 9.4478
rtoes -28.8254
lfemur -78.575 12.1043 -33.5052
ltibia 68.9379
lfoot -6.43692 -5.24674
ltoes -26.9784
185
root -9.86714 14.1746 4.62606 18.7664 22.8854 -4.70729
lowerback 25.5786 8.13861 2.18356
upperback 12.8286 10.994 1.36138
thorax 0.385348 5.582 -2.38058
lowerneck -39.6261 11.081 2.33157
upperneck 0.815173 17.2278 -21.6703
head 8.61681 6.31316 -4.72843
rclavicle -1.39944e-013 4.21423e-014
rhumerus 139.474 9.08444 -239.819
rradius 18.7346
rwrist 191.902
rhand -27.3446 83.1834
rfingers 7.12502
rthumb -0.752927 53.205
lclavicle -1.39944e-013 4.21423e-014
lhumerus -71.4125 -24.7067 115.073
lradius 38.7016
lwrist 28.482
lhand -16.8268 33.4635
lfingers 7.12502
lthumb 9.40244 63.2338
rfemur 27.1163 1.76817 22.099
rtibia 6.25096
rfoot 10.9586 8.59884
rtoes -34.9749
lfemur -78.8625 12.001 -32.5933
ltibia 65.0665
lfoot -2.19193 -8.45041
ltoes -0.913639
